# xmcd
#
# Track frame offsets: 
#        150
#        56898
#        71808
#        114009
#        149664
#        200060
#        254443
#
# Disc length: 3957 seconds
#
# Revision: 5
# Processed by: cddbd v1.5.2PL0 Copyright (c) Steve Scherf et al.
# Submitted via: ExactAudioCopyFreeDBPlugin 1.0
#
DISCID=710f7307
DTITLE=Slaughter, Karin - Zerstört
DYEAR=2009
DGENRE=Krimi
TTITLE0=30 Zerstört
TTITLE1=31 Zerstört
TTITLE2=32 Zerstört
TTITLE3=33 Zerstört
TTITLE4=34 Zerstört
TTITLE5=35 Zerstört
TTITLE6=36 Zerstört
EXTD=YEAR: 2009
EXTT0=
EXTT1=
EXTT2=
EXTT3=
EXTT4=
EXTT5=
EXTT6=
PLAYORDER=
